<svg width="213" height="65" viewBox="0 0 213 65" fill="none" xmlns="http://www.w3.org/2000/svg">
<path d="M54.6201 0.379639H135.62V18.3796H72.6201L54.6201 0.379639Z" fill="white"/>
<rect x="99.6201" y="18.3796" width="18" height="44" fill="white"/>
<path d="M140.62 62.3796H194.62L212.62 44.3796H140.62V62.3796Z" fill="white"/>
<path d="M140.62 44.3796H158.62V0.379639H140.62V44.3796Z" fill="white"/>
<path d="M79.9727 39.9708L80 64.7594L38.4327 23.1709L27.6546 12.3321L40.0019 -1.74837e-06L79.9727 39.9708ZM42.858 39.7401C43.283 40.0618 43.0735 40.6537 43.1282 41.1029L43.1221 64.7382L21.6024 43.1972L33.9224 30.8014L42.858 39.7401Z" fill="white"/>
<path d="M21.5812 18.4449L33.9224 30.8013L21.6024 43.1972L21.5478 43.2488L9.21872 30.8044L21.5812 18.4449Z" fill="white"/>
<path d="M9.2188 30.8043L21.5479 43.2487L0.0281491 64.7472C0.00993806 56.6492 0.0342266 48.5543 0.0160156 40.4593C-0.0871815 39.998 0.334715 39.7127 0.595743 39.4183L9.2188 30.8043Z" fill="white"/>
</svg>
